<?xml version="1.0" encoding="utf-8"?>
<!-- Generator: Adobe Illustrator 16.0.0, SVG Export Plug-In . SVG Version: 6.00 Build 0)  -->
<!DOCTYPE svg PUBLIC "-//W3C//DTD SVG 1.1//EN" "http://www.w3.org/Graphics/SVG/1.1/DTD/svg11.dtd">
<svg version="1.1" id="Layer_1" xmlns="http://www.w3.org/2000/svg" xmlns:xlink="http://www.w3.org/1999/xlink" x="0px" y="0px"
	 width="117.4335938px" height="38.5874023px" viewBox="0 0 117.4335938 38.5874023"
	 style="enable-background:new 0 0 117.4335938 38.5874023;" xml:space="preserve">
<g>
	<path style="fill:#63B048;" d="M4.7006836,24.0991211c-0.2246094,0-0.418457,0.234375-0.418457,0.6503906
		c-0.0639648,4.2724609,0.0327148,8.4980469-0.0639648,12.6767578c0,0.3701172-0.1303711,0.7431641-0.3549805,0.7900391
		c-0.8691406,0.1386719-2.5117188,0.0917969-3.4135742,0c-0.1928711,0-0.4179688-0.1875-0.4179688-0.6044922
		c0-14.2558594-0.0654297-23.5415039-0.0654297-36.6811523c0-0.3701172,0.3242188-0.5561523,0.5483398-0.5561523
		c1.4165039-0.0932617,4.2827148,0.046875,4.2827148,0.046875c2.3188477,0.0449219,5.2167969,2.2734375,5.2167969,5.9428711
		v11.1430664C10.0141602,22.6616211,6.3110352,24.0991211,4.7006836,24.0991211z M4.7661133,6.3642578
		c0,0-0.2587891-0.046875-0.4838867-0.0947266C4.0878906,6.2250977,3.9589844,6.6425781,3.9921875,6.9677734
		c0.0644531,1.0200195-0.0332031,7.0112305,0.0327148,10.0727539c0,0.2802734,0.128418,0.5126953,0.3217773,0.6064453
		c0.1606445,0.0917969,0.4194336-0.046875,0.4194336-0.046875c0.8046875-0.0927734,1.3833008,0,1.4160156-5.3398438
		C6.2138672,5.5268555,5.409668,6.5024414,4.7661133,6.3642578z"/>
	<path style="fill:#63B048;" d="M16.0297852,38.5874023c-3.6704102,0-4.9267578-2.5546875-4.9267578-7.8007812V9.2880859
		c0-7.2895508,2.1572266-8.9614258,4.9267578-8.9614258c2.8984375,0,5.1518555,1.2548828,5.1518555,8.4057617v22.0541992
		C21.1816406,35.940918,19.6689453,38.5874023,16.0297852,38.5874023z M17.0927734,9.8925781
		c0-2.4619141-0.3540039-2.7402344-0.9018555-2.7402344c-0.675293,0-0.9985352,0.7441406-0.9985352,2.7856445v18.8037109
		c0,2.2314453,0.3862305,2.3242188,0.9985352,2.3242188c0.5478516,0,0.9018555-0.234375,0.9018555-2.3691406V9.8925781z"/>
	<path style="fill:#63B048;" d="M30.9760742,37.9370117c-2.4150391,0-6.2470703,0.2792969-8.0175781,0
		c-0.3540039-0.046875-0.4838867-0.6503906-0.4838867-1.1162109c-0.0957031-13.0458984-0.128418-30.7348633-0.0957031-35.4716797
		c0-0.5571289,0.1933594-1.2539062,0.5795898-1.1616211c1.2236328,0.2788086,2.5117188,0.0478516,3.4775391,0
		c0.6757812-0.0458984,0.4194336,0.7890625,0.4501953,1.347168c0.1616211,4.2246094-0.128418,19.8720703,0.0644531,28.5087891
		c0,0.6025391,0.3227539,1.0683594,0.7407227,1.1142578c1.1918945,0.0927734,2.2539062,0,3.3491211,0
		c0.3862305,0,0.7739258,0.2783203,0.7739258,0.8359375c-0.0341797,1.6708984,0.0625,3.2041016,0,5.1074219
		C31.7802734,37.6567383,31.3310547,37.9370117,30.9760742,37.9370117z"/>
	<path style="fill:#63B048;" d="M44.0390625,38.1206055c-0.934082,0.1425781-3.3808594,0-4.4116211,0
		c-0.2255859,0-0.3217773-0.3681641-0.3852539-0.6484375c-0.484375-2.4599609-1.6435547-9.1474609-1.8046875-10.0751953
		c-0.2890625-1.671875-0.2563477-0.1386719-0.2563477,0c-0.0976562,2.1826172-0.0976562,6.3144531-0.0327148,10.0292969
		c0,0.3261719-0.1298828,0.6943359-0.3544922,0.6943359c-1.0629883,0-2.253418,0.0488281-3.1557617,0
		c-0.2905273,0-0.4179688-0.4638672-0.4179688-0.8808594c0-14.0673828-0.0327148-23.3530273-0.0327148-36.1225586
		c0-0.371582,0.0966797-0.6508789,0.3222656-0.6508789c0.9648438,0.0463867,2.5756836-0.0917969,3.4770508,0
		c0.2255859,0.0463867,0.3222656,0.3256836,0.3222656,0.6508789c-0.0654297,2.9711914-0.1928711,7.3354492-0.1279297,9.8896484
		c0,0.1391602,0.0961914,0.7416992,0.2563477-0.0947266c0.4511719-2.3212891,0.9658203-5.7099609,1.7392578-9.7026367
		c0.0654297-0.2788086,0.2250977-0.6489258,0.4179688-0.6489258c1.2563477,0.0922852,3.0595703-0.0942383,3.7680664-0.0942383
		c0.2578125,0,0.5791016,0.4643555,0.4199219,0.9301758c-0.8378906,2.4130859-4.5405273,15.1347656-4.4448242,15.5541992
		c0,0,3.6069336,15.6474609,4.8618164,20.3359375C44.2963867,37.6118164,44.2329102,38.0756836,44.0390625,38.1206055z"/>
	<path style="fill:#63B048;" d="M58.2709961,38.3081055c-1.0620117,0-2.1567383-0.0449219-3.7993164-0.0449219
		c-0.0966797,0-0.2250977-0.234375-0.2578125-0.3730469c-0.1611328-0.7890625-0.9008789-5.7109375-0.9648438-6.546875
		c-0.0322266-0.2314453-0.2260742-0.3242188-0.3554688-0.3242188c-0.2900391,0-0.8686523-0.0458984-1.2558594,0
		c-0.1611328,0-0.2563477,0.0927734-0.2890625,0.3242188c-0.1601562,0.9287109-0.6123047,5.6181641-0.7724609,6.453125
		c-0.0332031,0.09375,0,0.4199219-0.2900391,0.4199219c-0.9985352,0-2.9624023,0-3.9614258,0
		c-0.546875,0-0.4506836-0.4199219-0.418457-0.5595703c0.1611328-0.8789062,4.0898438-37.2822266,4.765625-37.3300781
		c1.706543-0.1391602,1.7714844-0.1391602,3.4775391,0c0.644043,0.0478516,4.2509766,36.3564453,4.4116211,37.7021484
		C58.5922852,38.2163086,58.4326172,38.3081055,58.2709961,38.3081055z M52.3466797,19.8735352
		c-0.2900391,0-0.515625,4.2744141-0.644043,5.2939453c-0.0317383,0.2792969,1.2871094,0.3720703,1.2558594,0
		C52.8295898,23.7280273,52.5400391,19.8735352,52.3466797,19.8735352z"/>
	<path style="fill:#63B048;" d="M65.2900391,38.2163086c-2.8974609,0-5.6337891-3.5761719-5.5385742-9.6582031
		c0,0,0-1.4853516,0.0341797-2.4150391c0-0.4179688,0.0947266-0.9755859,0.3515625-0.9755859
		c0.6132812,0.0458984,2.8989258-0.1855469,3.6391602-0.1855469c0.3222656,0,0.3222656,0.6972656,0.3222656,1.2070312
		c0,0.8359375,0,2.2763672,0,2.2763672c0,1.5302734,0.3535156,3.34375,1.2558594,3.34375
		c0.9335938,0,1.03125-1.1152344,1.0625-2.2763672l0.0644531-2.6005859
		c0.0644531-2.9707031-6.5361328-7.9394531-6.5361328-13.4174805V9.5683594c0-5.340332,1.7705078-9.4731445,5.6982422-9.5668945
		c3.1894531-0.0913086,4.9902344,3.4838867,4.9902344,8.2202148c0,0,0,3.1572266,0,4.5957031
		c0,0.277832-0.1269531,0.6972656-0.3535156,0.7431641c-0.8378906,0.0932617-2.7675781,0.0454102-3.5097656,0
		c-0.2246094,0-0.4179688-0.3710938-0.4179688-0.6958008c-0.03125-1.1621094,0.0644531-3.7158203,0.0644531-3.7158203
		c0.0332031-1.0678711-0.2890625-2.8793945-0.9667969-2.8793945c-0.8671875,0-1.2558594,1.4858398-1.2558594,3.065918v2.4130859
		c0,3.5756836,6.6347656,8.8701172,6.6347656,14.4404297v3.2050781
		C70.8291016,34.7338867,68.8642578,38.2163086,65.2900391,38.2163086z"/>
	<path style="fill:#63B048;" d="M76.9130859,24.0991211c-0.2246094,0-0.4199219,0.234375-0.4199219,0.6503906
		c-0.0625,4.2724609,0.0351562,8.4980469-0.0625,12.6767578c0,0.3701172-0.1269531,0.7431641-0.3554688,0.7900391
		c-0.8691406,0.1386719-2.5097656,0.0917969-3.4121094,0c-0.1933594,0-0.4179688-0.1875-0.4179688-0.6044922
		c0-14.2558594-0.0644531-23.5415039-0.0644531-36.6811523c0-0.3701172,0.3203125-0.5561523,0.5449219-0.5561523
		c1.4199219-0.0932617,4.2851562,0.046875,4.2851562,0.046875c2.3183594,0.0449219,5.2148438,2.2734375,5.2148438,5.9428711
		v11.1430664C82.2255859,22.6616211,78.5224609,24.0991211,76.9130859,24.0991211z M76.9775391,6.3642578
		c0,0-0.2558594-0.046875-0.484375-0.0947266c-0.1894531-0.0444336-0.3183594,0.3730469-0.2890625,0.6982422
		c0.0644531,1.0200195-0.0292969,7.0112305,0.0351562,10.0727539c0,0.2802734,0.1269531,0.5126953,0.3203125,0.6064453
		c0.1621094,0.0917969,0.4179688-0.046875,0.4179688-0.046875c0.8066406-0.0927734,1.3847656,0,1.4179688-5.3398438
		C78.4248047,5.5268555,77.6220703,6.5024414,76.9775391,6.3642578z"/>
	<path style="fill:#63B048;" d="M88.2431641,38.5874023c-3.6699219,0-4.9257812-2.5546875-4.9257812-7.8007812V9.2880859
		c0-7.2895508,2.15625-8.9614258,4.9257812-8.9614258c2.8984375,0,5.1523438,1.2548828,5.1523438,8.4057617v22.0541992
		C93.3955078,35.940918,91.8818359,38.5874023,88.2431641,38.5874023z M89.3056641,9.8925781
		c0-2.4619141-0.3535156-2.7402344-0.9023438-2.7402344c-0.6757812,0-0.9980469,0.7441406-0.9980469,2.7856445v18.8037109
		c0,2.2314453,0.3867188,2.3242188,0.9980469,2.3242188c0.5488281,0,0.9023438-0.234375,0.9023438-2.3691406V9.8925781z"/>
	<path style="fill:#63B048;" d="M104.7392578,6.6425781c-0.5488281,0-1.3183594-0.0483398-2.125-0.0483398
		c-0.2890625,0-0.6757812,0.1411133-0.6757812,0.6972656c0,10.5869141,0.0644531,18.2939453,0.0644531,29.9482422
		c0,0.4169922-0.1289062,0.7421875-0.3535156,0.7890625c-0.9667969,0.1875-2.640625,0.046875-3.671875-0.046875
		c-0.2578125-0.0449219-0.4199219-0.4638672-0.4199219-0.7880859c0-11.6542969-0.0292969-19.3154297-0.0292969-29.9462891
		c0-0.2797852-0.2265625-0.6533203-0.3886719-0.6533203c-0.6757812,0-1.578125,0.0947266-2.3828125,0
		c-0.2558594-0.0439453-0.5136719-0.324707-0.5136719-0.6494141c0-1.206543,0.03125-3.8535156,0.03125-4.9682617
		c0-0.3706055,0.2910156-0.6020508,0.5488281-0.6020508c1.8339844,0.046875,7.9863281-0.0932617,9.9492188,0
		c0.2910156,0,0.484375,0.4174805,0.484375,0.8349609c0.03125,1.1611328,0.0625,2.8789062,0.03125,4.7827148
		C105.2880859,6.4101562,105.0283203,6.6425781,104.7392578,6.6425781z"/>
	<path style="fill:#63B048;" d="M111.8955078,38.2163086c-2.9003906,0-5.6386719-3.5761719-5.5410156-9.6582031
		c0,0,0-1.4853516,0.0332031-2.4150391c0-0.4179688,0.0976562-0.9755859,0.3535156-0.9755859
		c0.6132812,0.0458984,2.8984375-0.1855469,3.6386719-0.1855469c0.3242188,0,0.3242188,0.6972656,0.3242188,1.2070312
		c0,0.8359375,0,2.2763672,0,2.2763672c0,1.5302734,0.3535156,3.34375,1.2539062,3.34375
		c0.9335938,0,1.03125-1.1152344,1.0625-2.2763672l0.0644531-2.6005859
		c0.0644531-2.9707031-6.5371094-7.9394531-6.5371094-13.4174805V9.5683594c0-5.340332,1.7714844-9.4731445,5.7011719-9.5668945
		c3.1875-0.0913086,4.9902344,3.4838867,4.9902344,8.2202148c0,0,0,3.1572266,0,4.5957031
		c0,0.277832-0.1289062,0.6972656-0.3554688,0.7431641c-0.8359375,0.0932617-2.7695312,0.0454102-3.5078125,0
		c-0.2265625,0-0.4199219-0.3710938-0.4199219-0.6958008c-0.03125-1.1621094,0.0644531-3.7158203,0.0644531-3.7158203
		c0.0332031-1.0678711-0.2890625-2.8793945-0.9667969-2.8793945c-0.8691406,0-1.2558594,1.4858398-1.2558594,3.065918v2.4130859
		c0,3.5756836,6.6347656,8.8701172,6.6347656,14.4404297v3.2050781
		C117.4326172,34.7338867,115.4697266,38.2163086,111.8955078,38.2163086z"/>
</g>
</svg>
